<svg width="143" height="28" viewBox="0 0 143 28" fill="none" xmlns="http://www.w3.org/2000/svg">
<rect width="143" height="28" rx="6.58637" fill="#3A8CD0"/>
<path d="M20.6273 17.684C21.2619 17.684 21.7239 17.5767 22.0133 17.362C22.3026 17.1473 22.4473 16.844 22.4473 16.452C22.4473 16.2187 22.3959 16.018 22.2933 15.85C22.1999 15.682 22.0599 15.5327 21.8733 15.402C21.6959 15.262 21.4766 15.136 21.2153 15.024C20.9539 14.9027 20.6553 14.786 20.3193 14.674C19.9833 14.5527 19.6566 14.422 19.3393 14.282C19.0313 14.1327 18.7559 13.9507 18.5133 13.736C18.2799 13.5213 18.0886 13.2647 17.9393 12.966C17.7993 12.6673 17.7293 12.308 17.7293 11.888C17.7293 11.0107 18.0326 10.3247 18.6393 9.83C19.2459 9.326 20.0719 9.074 21.1173 9.074C21.7239 9.074 22.2606 9.144 22.7273 9.284C23.2033 9.41467 23.5766 9.55933 23.8473 9.718L23.3013 11.146C22.9839 10.9687 22.6339 10.8333 22.2513 10.74C21.8779 10.6467 21.4906 10.6 21.0893 10.6C20.6133 10.6 20.2399 10.698 19.9693 10.894C19.7079 11.09 19.5773 11.3653 19.5773 11.72C19.5773 11.9347 19.6193 12.1213 19.7033 12.28C19.7966 12.4293 19.9226 12.5647 20.0813 12.686C20.2493 12.8073 20.4406 12.9193 20.6553 13.022C20.8793 13.1247 21.1219 13.2227 21.3833 13.316C21.8406 13.484 22.2466 13.6567 22.6013 13.834C22.9653 14.002 23.2686 14.2073 23.5113 14.45C23.7633 14.6833 23.9546 14.9633 24.0853 15.29C24.2159 15.6073 24.2813 15.9947 24.2813 16.452C24.2813 17.3293 23.9686 18.0107 23.3433 18.496C22.7273 18.972 21.8219 19.21 20.6273 19.21C20.2259 19.21 19.8573 19.182 19.5213 19.126C19.1946 19.0793 18.9006 19.0187 18.6393 18.944C18.3873 18.8693 18.1679 18.7947 17.9813 18.72C17.7946 18.636 17.6453 18.5613 17.5333 18.496L18.0513 17.054C18.3033 17.194 18.6439 17.334 19.0733 17.474C19.5026 17.614 20.0206 17.684 20.6273 17.684ZM28.5798 9.2C29.9892 9.2 31.0672 9.45667 31.8138 9.97C32.5698 10.4833 32.9478 11.286 32.9478 12.378C32.9478 12.9473 32.8452 13.4373 32.6398 13.848C32.4438 14.2493 32.1545 14.5807 31.7718 14.842C31.3892 15.094 30.9225 15.2807 30.3718 15.402C29.8212 15.5233 29.1912 15.584 28.4818 15.584H27.5998V19H25.8358V9.438C26.2465 9.34467 26.6992 9.284 27.1938 9.256C27.6978 9.21867 28.1598 9.2 28.5798 9.2ZM28.7058 10.726C28.2578 10.726 27.8892 10.74 27.5998 10.768V14.072H28.4538C29.3032 14.072 29.9565 13.9553 30.4138 13.722C30.8712 13.4793 31.0998 13.0267 31.0998 12.364C31.0998 12.0467 31.0392 11.7807 30.9178 11.566C30.7965 11.3513 30.6285 11.1833 30.4138 11.062C30.1992 10.9407 29.9425 10.8567 29.6438 10.81C29.3545 10.754 29.0418 10.726 28.7058 10.726ZM36.0005 14.142C36.0005 14.674 36.0658 15.1593 36.1965 15.598C36.3272 16.0273 36.5138 16.396 36.7565 16.704C37.0085 17.0027 37.3118 17.236 37.6665 17.404C38.0212 17.572 38.4225 17.656 38.8705 17.656C39.3092 17.656 39.7058 17.572 40.0605 17.404C40.4152 17.236 40.7138 17.0027 40.9565 16.704C41.2085 16.396 41.3998 16.0273 41.5305 15.598C41.6612 15.1593 41.7265 14.674 41.7265 14.142C41.7265 13.61 41.6612 13.1293 41.5305 12.7C41.3998 12.2613 41.2085 11.8927 40.9565 11.594C40.7138 11.286 40.4152 11.048 40.0605 10.88C39.7058 10.712 39.3092 10.628 38.8705 10.628C38.4225 10.628 38.0212 10.712 37.6665 10.88C37.3118 11.048 37.0085 11.286 36.7565 11.594C36.5138 11.902 36.3272 12.2707 36.1965 12.7C36.0658 13.1293 36.0005 13.61 36.0005 14.142ZM43.5745 14.142C43.5745 14.9727 43.4485 15.7053 43.1965 16.34C42.9538 16.9747 42.6178 17.5067 42.1885 17.936C41.7685 18.356 41.2738 18.6733 40.7045 18.888C40.1352 19.1027 39.5285 19.21 38.8845 19.21C38.2405 19.21 37.6292 19.1027 37.0505 18.888C36.4812 18.6733 35.9818 18.356 35.5525 17.936C35.1325 17.5067 34.7965 16.9747 34.5445 16.34C34.2925 15.7053 34.1665 14.9727 34.1665 14.142C34.1665 13.3113 34.2925 12.5833 34.5445 11.958C34.7965 11.3233 35.1372 10.7913 35.5665 10.362C36.0052 9.93267 36.5092 9.61067 37.0785 9.396C37.6478 9.18133 38.2498 9.074 38.8845 9.074C39.5192 9.074 40.1212 9.18133 40.6905 9.396C41.2598 9.61067 41.7545 9.93267 42.1745 10.362C42.6038 10.7913 42.9445 11.3233 43.1965 11.958C43.4485 12.5833 43.5745 13.3113 43.5745 14.142ZM48.1837 9.2C49.5837 9.2 50.6523 9.45667 51.3897 9.97C52.1363 10.4833 52.5097 11.2673 52.5097 12.322C52.5097 13.638 51.861 14.5293 50.5637 14.996C50.741 15.2107 50.9417 15.472 51.1657 15.78C51.3897 16.088 51.6183 16.424 51.8517 16.788C52.085 17.1427 52.309 17.5113 52.5237 17.894C52.7383 18.2673 52.9297 18.636 53.0977 19H51.1237C50.9463 18.664 50.755 18.328 50.5497 17.992C50.3443 17.6467 50.1343 17.3153 49.9197 16.998C49.7143 16.6713 49.509 16.368 49.3037 16.088C49.0983 15.7987 48.907 15.542 48.7297 15.318C48.599 15.3273 48.487 15.332 48.3937 15.332C48.3003 15.332 48.2117 15.332 48.1277 15.332H47.2737V19H45.5097V9.438C45.939 9.34467 46.3963 9.284 46.8817 9.256C47.367 9.21867 47.801 9.2 48.1837 9.2ZM48.3097 10.726C47.9363 10.726 47.591 10.74 47.2737 10.768V13.904H48.0437C48.473 13.904 48.851 13.8807 49.1777 13.834C49.5043 13.7873 49.775 13.7033 49.9897 13.582C50.2137 13.4607 50.3817 13.2973 50.4937 13.092C50.6057 12.8867 50.6617 12.6253 50.6617 12.308C50.6617 12.0093 50.6057 11.7573 50.4937 11.552C50.3817 11.3467 50.2183 11.1833 50.0037 11.062C49.7983 10.9407 49.551 10.8567 49.2617 10.81C48.9723 10.754 48.655 10.726 48.3097 10.726ZM61.2267 9.298V10.824H58.2447V19H56.4667V10.824H53.4847V9.298H61.2267ZM83.285 9.298H85.049V19H83.285V9.298ZM94.1349 9.298V10.824H91.1529V19H89.3749V10.824H86.3929V9.298H94.1349ZM95.4804 9.298H97.2444V19H95.4804V9.298ZM106.106 19C105.789 18.468 105.434 17.8987 105.042 17.292C104.65 16.676 104.244 16.06 103.824 15.444C103.404 14.8187 102.975 14.2167 102.536 13.638C102.107 13.05 101.696 12.5227 101.304 12.056V19H99.5683V9.298H101.01C101.384 9.69 101.785 10.1567 102.214 10.698C102.644 11.23 103.073 11.7853 103.502 12.364C103.941 12.9427 104.361 13.526 104.762 14.114C105.173 14.6927 105.537 15.234 105.854 15.738V9.298H107.604V19H106.106ZM114.468 10.628C113.469 10.628 112.704 10.9407 112.172 11.566C111.649 12.182 111.388 13.0407 111.388 14.142C111.388 14.6647 111.448 15.1453 111.57 15.584C111.7 16.0133 111.887 16.382 112.13 16.69C112.382 16.998 112.69 17.2407 113.054 17.418C113.427 17.586 113.861 17.67 114.356 17.67C114.664 17.67 114.93 17.6607 115.154 17.642C115.378 17.614 115.555 17.5813 115.686 17.544V14.058H117.45V18.72C117.207 18.8133 116.796 18.916 116.218 19.028C115.639 19.14 114.972 19.196 114.216 19.196C113.516 19.196 112.876 19.084 112.298 18.86C111.719 18.636 111.224 18.3093 110.814 17.88C110.412 17.4507 110.1 16.9233 109.876 16.298C109.652 15.6727 109.54 14.954 109.54 14.142C109.54 13.33 109.661 12.6113 109.904 11.986C110.156 11.3607 110.496 10.8333 110.926 10.404C111.355 9.96533 111.859 9.634 112.438 9.41C113.016 9.186 113.632 9.074 114.286 9.074C114.734 9.074 115.13 9.10667 115.476 9.172C115.83 9.228 116.134 9.29333 116.386 9.368C116.638 9.44267 116.843 9.522 117.002 9.606C117.17 9.69 117.286 9.75067 117.352 9.788L116.82 11.23C116.54 11.062 116.19 10.922 115.77 10.81C115.359 10.6887 114.925 10.628 114.468 10.628ZM121.84 17.684C122.475 17.684 122.937 17.5767 123.226 17.362C123.516 17.1473 123.66 16.844 123.66 16.452C123.66 16.2187 123.609 16.018 123.506 15.85C123.413 15.682 123.273 15.5327 123.086 15.402C122.909 15.262 122.69 15.136 122.428 15.024C122.167 14.9027 121.868 14.786 121.532 14.674C121.196 14.5527 120.87 14.422 120.552 14.282C120.244 14.1327 119.969 13.9507 119.726 13.736C119.493 13.5213 119.302 13.2647 119.152 12.966C119.012 12.6673 118.942 12.308 118.942 11.888C118.942 11.0107 119.246 10.3247 119.852 9.83C120.459 9.326 121.285 9.074 122.33 9.074C122.937 9.074 123.474 9.144 123.94 9.284C124.416 9.41467 124.79 9.55933 125.06 9.718L124.514 11.146C124.197 10.9687 123.847 10.8333 123.464 10.74C123.091 10.6467 122.704 10.6 122.302 10.6C121.826 10.6 121.453 10.698 121.182 10.894C120.921 11.09 120.79 11.3653 120.79 11.72C120.79 11.9347 120.832 12.1213 120.916 12.28C121.01 12.4293 121.136 12.5647 121.294 12.686C121.462 12.8073 121.654 12.9193 121.868 13.022C122.092 13.1247 122.335 13.2227 122.596 13.316C123.054 13.484 123.46 13.6567 123.814 13.834C124.178 14.002 124.482 14.2073 124.724 14.45C124.976 14.6833 125.168 14.9633 125.298 15.29C125.429 15.6073 125.494 15.9947 125.494 16.452C125.494 17.3293 125.182 18.0107 124.556 18.496C123.94 18.972 123.035 19.21 121.84 19.21C121.439 19.21 121.07 19.182 120.734 19.126C120.408 19.0793 120.114 19.0187 119.852 18.944C119.6 18.8693 119.381 18.7947 119.194 18.72C119.008 18.636 118.858 18.5613 118.746 18.496L119.264 17.054C119.516 17.194 119.857 17.334 120.286 17.474C120.716 17.614 121.234 17.684 121.84 17.684Z" fill="white"/>
<path d="M65.1762 17.334C65.4842 17.334 65.7362 17.3107 65.9322 17.264C66.1375 17.208 66.3008 17.138 66.4222 17.054C66.5435 16.9607 66.6275 16.8533 66.6742 16.732C66.7208 16.6107 66.7442 16.4753 66.7442 16.326C66.7442 16.0087 66.5948 15.7473 66.2962 15.542C65.9975 15.3273 65.4842 15.0987 64.7562 14.856C64.4388 14.744 64.1215 14.618 63.8042 14.478C63.4868 14.3287 63.2022 14.1467 62.9502 13.932C62.6982 13.708 62.4928 13.442 62.3342 13.134C62.1755 12.8167 62.0962 12.434 62.0962 11.986C62.0962 11.538 62.1802 11.1367 62.3482 10.782C62.5162 10.418 62.7542 10.11 63.0622 9.858C63.3702 9.606 63.7435 9.41467 64.1822 9.284C64.6208 9.144 65.1155 9.074 65.6662 9.074C66.3195 9.074 66.8842 9.144 67.3602 9.284C67.8362 9.424 68.2282 9.578 68.5362 9.746L67.9062 11.468C67.6355 11.328 67.3322 11.2067 66.9962 11.104C66.6695 10.992 66.2728 10.936 65.8062 10.936C65.2835 10.936 64.9055 11.0107 64.6722 11.16C64.4482 11.3 64.3362 11.5193 64.3362 11.818C64.3362 11.9953 64.3782 12.1447 64.4622 12.266C64.5462 12.3873 64.6628 12.4993 64.8122 12.602C64.9708 12.6953 65.1482 12.784 65.3442 12.868C65.5495 12.9427 65.7735 13.022 66.0162 13.106C66.5202 13.2927 66.9588 13.4793 67.3322 13.666C67.7055 13.8433 68.0135 14.0533 68.2562 14.296C68.5082 14.5387 68.6948 14.8233 68.8162 15.15C68.9375 15.4767 68.9982 15.8733 68.9982 16.34C68.9982 17.2453 68.6808 17.95 68.0462 18.454C67.4115 18.9487 66.4548 19.196 65.1762 19.196C64.7468 19.196 64.3595 19.168 64.0142 19.112C63.6688 19.0653 63.3608 19.0047 63.0902 18.93C62.8288 18.8553 62.6002 18.776 62.4042 18.692C62.2175 18.608 62.0588 18.5287 61.9282 18.454L62.5442 16.718C62.8335 16.8767 63.1882 17.0213 63.6082 17.152C64.0375 17.2733 64.5602 17.334 65.1762 17.334ZM73.2546 9.298C73.4226 9.606 73.6139 9.98867 73.8286 10.446C74.0526 10.894 74.2813 11.384 74.5146 11.916C74.7573 12.4387 74.9953 12.9753 75.2286 13.526C75.4619 14.0767 75.6813 14.5947 75.8866 15.08C76.0919 14.5947 76.3113 14.0767 76.5446 13.526C76.7779 12.9753 77.0113 12.4387 77.2446 11.916C77.4873 11.384 77.7159 10.894 77.9306 10.446C78.1546 9.98867 78.3506 9.606 78.5186 9.298H80.5066C80.5999 9.942 80.6839 10.6653 80.7586 11.468C80.8426 12.2613 80.9126 13.092 80.9686 13.96C81.0339 14.8187 81.0899 15.682 81.1366 16.55C81.1926 17.418 81.2393 18.2347 81.2766 19H79.1486C79.1206 18.0573 79.0833 17.0307 79.0366 15.92C78.9899 14.8093 78.9199 13.6893 78.8266 12.56C78.6586 12.952 78.4719 13.386 78.2666 13.862C78.0613 14.338 77.8559 14.814 77.6506 15.29C77.4546 15.766 77.2633 16.2233 77.0766 16.662C76.8899 17.0913 76.7313 17.46 76.6006 17.768H75.0746C74.9439 17.46 74.7853 17.0913 74.5986 16.662C74.4119 16.2233 74.2159 15.766 74.0106 15.29C73.8146 14.814 73.6139 14.338 73.4086 13.862C73.2033 13.386 73.0166 12.952 72.8486 12.56C72.7553 13.6893 72.6853 14.8093 72.6386 15.92C72.5919 17.0307 72.5546 18.0573 72.5266 19H70.3986C70.4359 18.2347 70.4779 17.418 70.5246 16.55C70.5806 15.682 70.6366 14.8187 70.6926 13.96C70.7579 13.092 70.8279 12.2613 70.9026 11.468C70.9866 10.6653 71.0753 9.942 71.1686 9.298H73.2546Z" fill="#0E1B21"/>
</svg>
