<svg width="498" height="165" viewBox="0 0 498 165" fill="none" xmlns="http://www.w3.org/2000/svg">
<path d="M23.362 58.3376C25.518 58.3376 27.282 58.1743 28.654 57.8476C30.0913 57.4556 31.2346 56.9656 32.084 56.3776C32.9333 55.7242 33.5213 54.9729 33.848 54.1236C34.1746 53.2743 34.338 52.3269 34.338 51.2816C34.338 49.0602 33.2926 47.2309 31.202 45.7936C29.1113 44.2909 25.518 42.6902 20.422 40.9916C18.2006 40.2076 15.9793 39.3256 13.758 38.3456C11.5366 37.3002 9.54398 36.0262 7.77998 34.5236C6.01598 32.9556 4.57864 31.0936 3.46798 28.9376C2.35731 26.7162 1.80198 24.0376 1.80198 20.9016C1.80198 17.7656 2.38998 14.9562 3.56598 12.4736C4.74198 9.92558 6.40798 7.76958 8.56398 6.00558C10.72 4.24158 13.3333 2.90225 16.404 1.98758C19.4746 1.00758 22.9373 0.517578 26.792 0.517578C31.3653 0.517578 35.318 1.00758 38.65 1.98758C41.982 2.96758 44.726 4.04558 46.882 5.22158L42.472 17.2756C40.5773 16.2956 38.454 15.4462 36.102 14.7276C33.8153 13.9436 31.0386 13.5516 27.772 13.5516C24.1133 13.5516 21.4673 14.0742 19.834 15.1196C18.266 16.0996 17.482 17.6349 17.482 19.7256C17.482 20.9669 17.776 22.0122 18.364 22.8616C18.952 23.7109 19.7686 24.4949 20.814 25.2136C21.9246 25.8669 23.166 26.4876 24.538 27.0756C25.9753 27.5982 27.5433 28.1536 29.242 28.7416C32.77 30.0482 35.8406 31.3549 38.454 32.6616C41.0673 33.9029 43.2233 35.3729 44.922 37.0716C46.686 38.7702 47.9926 40.7629 48.842 43.0496C49.6913 45.3362 50.116 48.1129 50.116 51.3796C50.116 57.7169 47.8946 62.6496 43.452 66.1776C39.0093 69.6402 32.3126 71.3716 23.362 71.3716C20.3566 71.3716 17.6453 71.1756 15.228 70.7836C12.8106 70.4569 10.6546 70.0322 8.75998 69.5096C6.93064 68.9869 5.32998 68.4316 3.95798 67.8436C2.65131 67.2556 1.54064 66.7002 0.625977 66.1776L4.93798 54.0256C6.96331 55.1362 9.44598 56.1489 12.386 57.0636C15.3913 57.9129 19.05 58.3376 23.362 58.3376Z" fill="white"/>
<path d="M83.243 1.30158C93.3697 1.30158 101.144 3.09825 106.567 6.69158C111.99 10.2196 114.701 16.0342 114.701 24.1356C114.701 32.3022 111.957 38.2149 106.469 41.8736C100.981 45.4669 93.141 47.2636 82.949 47.2636H78.147V69.9996H62.859V3.06558C66.191 2.41225 69.719 1.95491 73.443 1.69358C77.167 1.43225 80.4337 1.30158 83.243 1.30158ZM84.223 14.3356C83.1124 14.3356 82.0017 14.3682 80.891 14.4336C79.8457 14.4989 78.931 14.5642 78.147 14.6296V34.2296H82.949C88.241 34.2296 92.2264 33.5109 94.905 32.0736C97.5837 30.6362 98.923 27.9576 98.923 24.0376C98.923 22.1429 98.5637 20.5749 97.845 19.3336C97.1917 18.0922 96.2117 17.1122 94.905 16.3936C93.6637 15.6096 92.1284 15.0869 90.299 14.8256C88.4697 14.4989 86.4444 14.3356 84.223 14.3356Z" fill="white"/>
<path d="M139.745 35.9936C139.745 39.3256 140.137 42.3309 140.921 45.0096C141.771 47.6882 142.947 50.0076 144.449 51.9676C146.017 53.8623 147.912 55.3322 150.133 56.3776C152.355 57.4229 154.903 57.9456 157.777 57.9456C160.587 57.9456 163.102 57.4229 165.323 56.3776C167.61 55.3322 169.505 53.8623 171.007 51.9676C172.575 50.0076 173.751 47.6882 174.535 45.0096C175.385 42.3309 175.809 39.3256 175.809 35.9936C175.809 32.6616 175.385 29.6562 174.535 26.9776C173.751 24.2336 172.575 21.9142 171.007 20.0196C169.505 18.0596 167.61 16.5569 165.323 15.5116C163.102 14.4662 160.587 13.9436 157.777 13.9436C154.903 13.9436 152.355 14.4989 150.133 15.6096C147.912 16.6549 146.017 18.1576 144.449 20.1176C142.947 22.0122 141.771 24.3316 140.921 27.0756C140.137 29.7542 139.745 32.7269 139.745 35.9936ZM191.587 35.9936C191.587 41.8082 190.705 46.9369 188.941 51.3796C187.243 55.7569 184.891 59.4482 181.885 62.4536C178.88 65.3936 175.287 67.6149 171.105 69.1176C166.989 70.6203 162.547 71.3716 157.777 71.3716C153.139 71.3716 148.761 70.6203 144.645 69.1176C140.529 67.6149 136.936 65.3936 133.865 62.4536C130.795 59.4482 128.377 55.7569 126.613 51.3796C124.849 46.9369 123.967 41.8082 123.967 35.9936C123.967 30.1789 124.882 25.0829 126.711 20.7056C128.541 16.2629 130.991 12.5389 134.061 9.53358C137.197 6.52825 140.791 4.27425 144.841 2.77158C148.957 1.26891 153.269 0.517578 157.777 0.517578C162.416 0.517578 166.793 1.26891 170.909 2.77158C175.025 4.27425 178.619 6.52825 181.689 9.53358C184.76 12.5389 187.177 16.2629 188.941 20.7056C190.705 25.0829 191.587 30.1789 191.587 35.9936Z" fill="white"/>
<path d="M225.205 1.30158C235.397 1.30158 243.205 3.13091 248.627 6.78958C254.05 10.3829 256.761 16.0016 256.761 23.6456C256.761 28.4149 255.651 32.3022 253.429 35.3076C251.273 38.2476 248.137 40.5669 244.021 42.2656C245.393 43.9642 246.831 45.9243 248.333 48.1456C249.836 50.3016 251.306 52.5882 252.743 55.0056C254.246 57.3576 255.683 59.8402 257.055 62.4536C258.427 65.0016 259.701 67.5169 260.877 69.9996H243.727C242.486 67.7782 241.212 65.5243 239.905 63.2376C238.664 60.9509 237.357 58.7296 235.985 56.5736C234.679 54.4176 233.372 52.3922 232.065 50.4976C230.759 48.5376 229.452 46.7736 228.145 45.2056H220.599V69.9996H205.311V3.06558C208.643 2.41225 212.073 1.95491 215.601 1.69358C219.195 1.43225 222.396 1.30158 225.205 1.30158ZM226.087 14.3356C224.977 14.3356 223.964 14.3682 223.049 14.4336C222.2 14.4989 221.383 14.5642 220.599 14.6296V33.0536H224.911C230.661 33.0536 234.777 32.3349 237.259 30.8976C239.742 29.4602 240.983 27.0102 240.983 23.5476C240.983 20.2156 239.709 17.8636 237.161 16.4916C234.679 15.0542 230.987 14.3356 226.087 14.3356Z" fill="white"/>
<path d="M321.071 2.08558V15.1196H300.589V69.9996H285.301V15.1196H264.819V2.08558H321.071Z" fill="white"/>
<path d="M22.872 95.0856C24.048 97.2416 25.3873 99.9202 26.89 103.122C28.458 106.258 30.0586 109.688 31.692 113.412C33.3906 117.07 35.0566 120.827 36.69 124.682C38.3233 128.536 39.8586 132.162 41.296 135.56C42.7333 132.162 44.2686 128.536 45.902 124.682C47.5353 120.827 49.1686 117.07 50.802 113.412C52.5006 109.688 54.1013 106.258 55.604 103.122C57.172 99.9202 58.544 97.2416 59.72 95.0856H73.636C74.2893 99.5936 74.8773 104.657 75.4 110.276C75.988 115.829 76.478 121.644 76.87 127.72C77.3273 133.73 77.7193 139.774 78.046 145.85C78.438 151.926 78.7646 157.642 79.026 163H64.13C63.934 156.401 63.6726 149.214 63.346 141.44C63.0193 133.665 62.5293 125.825 61.876 117.92C60.7 120.664 59.3933 123.702 57.956 127.034C56.5186 130.366 55.0813 133.698 53.644 137.03C52.272 140.362 50.9326 143.563 49.626 146.634C48.3193 149.639 47.2086 152.22 46.294 154.376H35.612C34.6973 152.22 33.5866 149.639 32.28 146.634C30.9733 143.563 29.6013 140.362 28.164 137.03C26.792 133.698 25.3873 130.366 23.95 127.034C22.5126 123.702 21.206 120.664 20.03 117.92C19.3766 125.825 18.8866 133.665 18.56 141.44C18.2333 149.214 17.972 156.401 17.776 163H2.87998C3.14131 157.642 3.43531 151.926 3.76198 145.85C4.15398 139.774 4.54598 133.73 4.93798 127.72C5.39531 121.644 5.88531 115.829 6.40798 110.276C6.99598 104.657 7.61664 99.5936 8.26998 95.0856H22.872Z" fill="white"/>
<path d="M93.7711 163V95.0856H139.635V107.924H109.059V121.252H136.205V133.796H109.059V150.162H141.889V163H93.7711Z" fill="white"/>
<path d="M154.183 163V95.0856H200.047V107.924H169.471V121.252H196.617V133.796H169.471V150.162H202.301V163H154.183Z" fill="white"/>
<path d="M264.966 95.0856V108.12H244.484V163H229.196V108.12H208.714V95.0856H264.966Z" fill="white"/>
<path d="M275.772 95.0856H291.06V163H275.772V95.0856Z" fill="white"/>
<path d="M353.329 163C348.952 155.225 344.216 147.548 339.12 139.97C334.024 132.391 328.601 125.237 322.852 118.508V163H307.759V95.0856H320.206C322.362 97.2416 324.746 99.8876 327.359 103.024C329.973 106.16 332.619 109.524 335.298 113.118C338.042 116.646 340.753 120.337 343.432 124.192C346.11 127.981 348.626 131.64 350.978 135.168V95.0856H366.168V163H353.329Z" fill="white"/>
<path d="M415.938 106.846C408.816 106.846 403.655 108.838 400.454 112.824C397.318 116.744 395.75 122.134 395.75 128.994C395.75 132.326 396.142 135.364 396.926 138.108C397.71 140.786 398.886 143.106 400.454 145.066C402.022 147.026 403.982 148.561 406.334 149.672C408.686 150.717 411.43 151.24 414.566 151.24C416.264 151.24 417.702 151.207 418.878 151.142C420.119 151.076 421.197 150.946 422.112 150.75V127.132H437.4V160.746C435.57 161.464 432.63 162.216 428.58 163C424.529 163.849 419.531 164.274 413.586 164.274C408.49 164.274 403.851 163.49 399.67 161.922C395.554 160.354 392.026 158.067 389.086 155.062C386.146 152.056 383.859 148.365 382.226 143.988C380.658 139.61 379.874 134.612 379.874 128.994C379.874 123.31 380.756 118.279 382.52 113.902C384.284 109.524 386.701 105.833 389.772 102.828C392.842 99.7569 396.436 97.4376 400.552 95.8696C404.733 94.3016 409.176 93.5176 413.88 93.5176C417.081 93.5176 419.956 93.7462 422.504 94.2036C425.117 94.5956 427.338 95.0856 429.168 95.6736C431.062 96.1962 432.598 96.7516 433.774 97.3396C435.015 97.9276 435.897 98.3849 436.42 98.7116L432.01 110.962C429.919 109.851 427.502 108.904 424.758 108.12C422.079 107.27 419.139 106.846 415.938 106.846Z" fill="white"/>
<path d="M350.399 58.3376C352.555 58.3376 354.319 58.1743 355.691 57.8476C357.128 57.4556 358.271 56.9656 359.121 56.3776C359.97 55.7242 360.558 54.9729 360.885 54.1236C361.211 53.2743 361.375 52.3269 361.375 51.2816C361.375 49.0602 360.329 47.2309 358.239 45.7936C356.148 44.2909 352.555 42.6902 347.459 40.9916C345.237 40.2076 343.016 39.3256 340.795 38.3456C338.573 37.3002 336.581 36.0262 334.817 34.5236C333.053 32.9556 331.615 31.0936 330.505 28.9376C329.394 26.7162 328.839 24.0376 328.839 20.9016C328.839 17.7656 329.427 14.9562 330.603 12.4736C331.779 9.92558 333.445 7.76958 335.601 6.00558C337.757 4.24158 340.37 2.90225 343.441 1.98758C346.511 1.00758 349.974 0.517578 353.829 0.517578C358.402 0.517578 362.355 1.00758 365.687 1.98758C369.019 2.96758 371.763 4.04558 373.919 5.22158L369.509 17.2756C367.614 16.2956 365.491 15.4462 363.139 14.7276C360.852 13.9436 358.075 13.5516 354.809 13.5516C351.15 13.5516 348.504 14.0742 346.871 15.1196C345.303 16.0996 344.519 17.6349 344.519 19.7256C344.519 20.9669 344.813 22.0122 345.401 22.8616C345.989 23.7109 346.805 24.4949 347.851 25.2136C348.961 25.8669 350.203 26.4876 351.575 27.0756C353.012 27.5982 354.58 28.1536 356.279 28.7416C359.807 30.0482 362.877 31.3549 365.491 32.6616C368.104 33.9029 370.26 35.3729 371.959 37.0716C373.723 38.7702 375.029 40.7629 375.879 43.0496C376.728 45.3362 377.153 48.1129 377.153 51.3796C377.153 57.7169 374.931 62.6496 370.489 66.1776C366.046 69.6402 359.349 71.3716 350.399 71.3716C347.393 71.3716 344.682 71.1756 342.265 70.7836C339.847 70.4569 337.691 70.0322 335.797 69.5096C333.967 68.9869 332.367 68.4316 330.995 67.8436C329.688 67.2556 328.577 66.7002 327.663 66.1776L331.975 54.0256C334 55.1362 336.483 56.1489 339.423 57.0636C342.428 57.9129 346.087 58.3376 350.399 58.3376Z" fill="#D1E8FA"/>
<path d="M471.126 151.338C473.282 151.338 475.046 151.174 476.418 150.848C477.856 150.456 478.999 149.966 479.848 149.378C480.698 148.724 481.286 147.973 481.612 147.124C481.939 146.274 482.102 145.327 482.102 144.282C482.102 142.06 481.057 140.231 478.966 138.794C476.875 137.291 473.282 135.69 468.186 133.992C465.965 133.208 463.743 132.326 461.522 131.346C459.301 130.3 457.308 129.026 455.544 127.524C453.78 125.956 452.343 124.094 451.232 121.938C450.122 119.716 449.566 117.038 449.566 113.902C449.566 110.766 450.154 107.956 451.33 105.474C452.506 102.926 454.172 100.77 456.328 99.0056C458.484 97.2416 461.098 95.9022 464.168 94.9876C467.239 94.0076 470.702 93.5176 474.556 93.5176C479.13 93.5176 483.082 94.0076 486.414 94.9876C489.746 95.9676 492.49 97.0456 494.646 98.2216L490.236 110.276C488.342 109.296 486.218 108.446 483.866 107.728C481.58 106.944 478.803 106.552 475.536 106.552C471.877 106.552 469.232 107.074 467.598 108.12C466.03 109.1 465.246 110.635 465.246 112.726C465.246 113.967 465.54 115.012 466.128 115.862C466.716 116.711 467.533 117.495 468.578 118.214C469.689 118.867 470.93 119.488 472.302 120.076C473.739 120.598 475.307 121.154 477.006 121.742C480.534 123.048 483.605 124.355 486.218 125.662C488.832 126.903 490.987 128.373 492.686 130.072C494.45 131.77 495.757 133.763 496.606 136.05C497.456 138.336 497.88 141.113 497.88 144.38C497.88 150.717 495.659 155.65 491.216 159.178C486.773 162.64 480.077 164.372 471.126 164.372C468.121 164.372 465.409 164.176 462.992 163.784C460.575 163.457 458.419 163.032 456.524 162.51C454.695 161.987 453.094 161.432 451.722 160.844C450.416 160.256 449.305 159.7 448.39 159.178L452.702 147.026C454.728 148.136 457.21 149.149 460.15 150.064C463.156 150.913 466.814 151.338 471.126 151.338Z" fill="#D1E8FA"/>
</svg>
